<?xml version="1.0" encoding="UTF-8"?>
<!-- Generated with png2svg.spafe.ru -->
<svg xmlns="http://www.w3.org/2000/svg" style="display:block" viewBox="0 0 1003 1070"><path d="M0 0h17l179 32 6 1 11 1 8 4 7 6 5 10 18 67 27 101 23 86 23 86 26 97 27 101 12 45-1 5-16 16-8 7-19 19-14 7h-2v2l6 2 50 25 5 6 1 2v6l-4 6-8 5-588 294-13 4-5 1h-24l-14-4-25-12-286-143-5-5-1-2v-9l5-6 56-28-19-10-18-9V301l2-12 6-12 9-9 23-12L-12 3Z" transform="translate(595 9)" style="fill:#92d0bb"/><path d="M0 0h7l6 3 6 7 5 17 7 28 6 21 5 20 5 17 7 28 6 21 6 24 6 21 5 20 6 21 6 24 6 21 5 20 6 21 6 24 6 21 5 20 5 17 7 28 6 21 6 24 6 21 5 20 6 21 2 12-8 5-540 270-5-1-5-17-10-36-27-102-20-75-29-109-24-90-25-94-8-30v-10l5-8 9-6L-3 1Z" transform="translate(797 67)" style="fill:#6b6b6b"/><path d="m0 0 6 2 94 47 5-1 19-10 28-14h6l116 58 4 15 7 25 6 24 6 21 6 24 6 21 7 28 6 21 7 27 7 27 6 21 7 28 6 21 4 15-1 5-17 16-23 23-6-1L0 287Z" transform="translate(40 537)" style="fill:#fef0de"/><path d="M0 0h2l16 34 19 45 16 42 14 40 13 40 17 59 14 56 6 24 5 24 4 17 3 15 3 12 6 33 2 12v7l-19 10-56 28-3-1-3-15-3-20-3-14-2-13-16 8h-3l-3-20-5-24-5-24-5-18-4-15-5 2-202 101-2-1-6-26-5-18-6-23-7-24-11-36-10-31-15-43-17-45-15-37-6-14 1-3L-72 32h3l20 49 18 48 9 25 12 36 7 22 9 29 7 26 6 21 5 21 4 16 8 32 7 34 6 28 2 10v5l74-37-2-16-7-30-6-26-6-25-5-20-12-45-8-26-7-22-5-17-7-21-3-8-11-31-14-35-8-20-7-15L2 7 0 3Z" transform="translate(757 94)" style="fill:#e94e2a"/><path d="m0 0 4 1H1l1 287 314 157 5-1 4-4 2 1-1 2 23-12 532-266h4v2l5 1 52 26 5 6 1 2v6l-4 6-8 5-588 294-13 4-5 1h-24l-14-4-25-12-286-143-5-5-1-2v-9l5-6 56-28-19-10-17-9Z" transform="translate(38 535)" style="fill:#010101"/><path d="M0 0h15l33 6 34 6 28 5 39 7 34 6 12 2-3 3-526 263h-8l-27-5-28-5-21-4-20-4-24-4-25-5-24-4-16-3-2-2 19-10 174-87 11-2 38-2 23-11 124-62h2l-6-11-3-4 1-3L-16 5l11-4Z" transform="translate(595 11)" style="fill:#fef0de"/><path d="M0 0h7l6 3 6 7 5 17 7 28 6 21 5 20 5 17 7 28 6 21 6 24 6 21 5 20 6 21 6 24 6 21 5 20 6 21 6 24 6 21 5 20 5 17 7 28 6 21 6 24 6 21 5 20 6 21 2 12-8 5-540 270-5-1-5-17-3-13h3l7 25v4l23-12 42-21 23-11 456-228v-1l-43-8h-7l-466 233v-3l33-17 138-69 23-11 272-136h2l-3-16-9-56-3-17-7-37-3-11-4-21-5-21-4-19-4-15-11-44-11-40-15-49-17-50-17-45-16-38-13-29-7-15v-2h-2l15 33 8 18 8 19 12 30 12 32 5 16 4 10 8 24 6 21 9 29 6 21 7 27 9 36 7 30 7 32 3 15-1 5-72 36h-2l-8-40-3-12-3-16-9-37-4-18-5-18-5-20-6-21-10-34-10-31-12-36-16-44-18-46-11-26v-3l-23 11-280 140-16 8-98 49-4 5-2 8-3 1v-7l5-8 9-6L-3 1Z" transform="translate(797 67)" style="fill:#000001"/><path d="m0 0 3 1 6 23 6 23 5 24 3 16 1 6v9l17-8h2l2 5 3 19 3 14 3 21v5l-74 37h-2l-4-23v-5l-23 11-294 147-3-1-5-23-9-39-4-15-8-28-8-27 4-4 140-70 23-11L-1 1Z" transform="translate(765 435)" style="fill:#000"/><path d="m0 0 12 1 41 7 34 6 37 6 35 6 34 6 8 1 2 3 5 20 6 21 7 28 6 21 7 27 7 27 6 21 7 28 6 21 7 27 6 23-1 2-114-57-4-1-50 25-4 1L0 220Z" transform="translate(40 315)" style="fill:#fef0de"/><path d="m0 0 3 4 16 39 15 39 14 39 15 44 4 13 10 33 7 25 7 27 7 26 2 11-19 10-35 17-96 48-3-1-6-26-5-18-6-23-7-24-11-36-10-31-15-43-17-45-18-44-3-8 19-10 54-27 16-8Z" transform="translate(459 239)" style="fill:#67e90f"/><path d="M0 0h2l16 34 19 45 16 42 14 40 13 40 17 59 14 56 6 24 5 24 4 17 3 15 3 12 6 33 2 12v7l-19 10-56 28-3-1-3-15-3-20-3-14-2-13-16 8h-3l-3-20-5-24-5-24-5-18-4-15-5 2-50 25h-2l-6-21-4-17-6-21-7-26-9-30-10-31-16-47-16-43-16-40-9-22v-2l74-37h3l20 49 18 48 9 25 12 36 7 22 9 29 7 26 6 21 5 21 4 16 8 32 7 34 6 28 2 10v5l74-37-2-16-7-30-6-26-6-25-5-20-12-45-8-26-7-22-5-17-7-21-3-8-11-31-14-35-8-20-7-15L2 7 0 3Z" transform="translate(757 94)" style="fill:#4e25e8"/><path d="M0 0h17l179 32 6 1 11 1 8 4 7 6 5 10 18 67 27 101 23 86 23 86 26 97 27 101 12 45-1 5-16 16-8 7-19 19-14 7h-2l-1 2v-2l-10 4-546 273-5 2 3-6 25-25 8-7-1-8-6-21-6-24-4-15-7-25-9-35-7-25-6-24-4-15-7-25-9-35-7-25-6-24-4-15-1-6-6-2-110-55h-6l-46 23-3 2-5-1-98-49v286h-1V527l7 1 94 47 4-1 50-25 4 1 114 57-5-21-7-25-6-24-6-21-7-28-6-21-9-35-7-25-7-28-6-21-5-18-36-6-37-6-33-6-36-6-37-6-22-4v220h-2v290h-1V301l2-12 6-12 9-9 23-12L-12 3Zm0 2-10 3-12 5-124 62v4l7 11 1 3-6 2-140 70-3 1-38 2-11 2-192 96-1 2 13 3 21 4 17 3 21 4 19 3 25 5 22 4 32 6 17 3h8L194 36l1-2-29-5-28-5-28-5-41-7-21-4-33-6Zm197 34-23 11-510 255-9 8-6 12-1 3v11l2 9 17 64 10 38 4 15 15 56 10 38 5 18 3 12 15 56 10 38 5 18 3 12 15 56 10 38 5 18 3 12 15 56 10 38 3 1 578-289v-6l-6-21-7-28-6-21-8-31-4-15-7-25-5-20-6-21-6-24-6-21-5-20-6-21-6-24-6-21-5-20-6-21-6-24-6-21-5-20-6-21-6-24-6-21-8-31-4-15-7-25-5-20-4-10-5-6-9-5-3-1Z" transform="translate(595 9)" style="fill:#1f2321"/><path d="m0 0 4 1 15 36 15 39 11 30 15 43 17 54 12 43 7 28 4 16 2 9-74 37-3-1-6-26-5-18-6-23-7-24-11-36-10-31-15-43-17-45-18-44-3-8 19-10Z" transform="translate(381 278)" style="fill:#12eaca"/><path d="M0 0h2l5 10 18 45 18 48 17 49 8 25 7 24 6 19 4 15 7 26 8 31 1 8-74 37-2-1-6-26-5-18-6-23-7-24-11-36-10-31-15-43-17-45-15-37-6-14 1-3Z" transform="translate(533 202)" style="fill:#ea5dde"/><path d="m0 0 3 3 18 44 16 42 17 48 9 27 4 13 10 33 7 26 6 21 9 35 1 8-20 10-1 2 6 21 7 23 6 24 4 14 3 14v4l-40 20-2-4-26-97-11-42-14-52-11-42-21-79-18-67-4-15v-8l4-6 8-5Z" transform="translate(307 315)" style="fill:#ebd666"/><path d="m0 0 14 1 36 7v3l-476 238-23 11-42 21-3 1-7-26v-5l34-17 19-10Z" transform="translate(906 621)" style="fill:#e7d5a3"/><path d="M0 0h16l12 4 11 7 10 9 9 10 9 14 8 17 5 16 2 11v18l-2 12-5 12-9 10-5 3-6 2H39l-16-7-9-7-17-9-9-9-9-14-6-15-2-9V59l2-6 1-19 4-13 4-8 9-9Z" transform="translate(110 387)" style="fill:#088e91"/><path d="m0 0 2 1-8 7-5 6-8 7-17 17-572 286-5 2 5-5 33-33L-1 1Z" transform="translate(975 653)" style="fill:#fcfcfc"/><path d="M0 0h8l22 4 32 6 17 3 21 4 23 4 26 5 23 4 24 5-6 7-4 5-3 7-2 16-11-1-36-6L10 42l-30-5v-9l3-10 6-9 9-8Z" transform="translate(60 276)" style="fill:#089194"/><path d="M0 0h2l16 34 19 45 16 42 14 40 13 40 17 59 14 56 6 24 5 24 4 17 3 15 3 12 6 33 2 12v7l-19 10-56 28-3-1-3-15-3-20-3-14-1-14 19-10 54-27-2-16-7-30-6-26-6-25-5-20-12-45-8-26-7-22-5-17-7-21-3-8-11-31-14-35-8-20-7-15L2 7 0 3Z" transform="translate(757 94)" style="fill:#fdfdfd"/><path d="m0 0 6 2 166 83 1 1v30l-6-2L1 31l-1-1Z" transform="translate(107 708)" style="fill:#010101"/><path d="m0 0 6 2 166 83 1 1v30l-6-2L1 31l-1-1Z" transform="translate(107 666)" style="fill:#020202"/><path d="m0 0 5 1 168 84v30l-5-1L0 30Z" transform="translate(107 751)" style="fill:#060605"/><path d="M0 0h1l4 23v7l-150 75-2-3-4-26 19-10Z" transform="translate(662 639)" style="fill:#e95cdd"/><path d="m0 0 5 1 7 10 2 3v3l-146 73-3 1-38 2h-6l-1-3Z" transform="translate(443 82)" style="fill:#050505"/><path d="M0 0h10l11 3 12 6 13 11 11 13 9 16 6 13 5 19 1 7v20l-3 13-6 11-8 7-8 3H37l-13-5-11-8v-1h11l6 2h10l9-4 5-4 5-10 2-8V83l-4-15-5-12-9-15-9-10-10-7-8-4-4-1H-2l-8 4-6 8-5 11-5 4V32l4-13 6-9 7-6Z" transform="translate(112 388)" style="fill:#e7502c"/><path d="M0 0h3l6 26 1 6 6-2 9-4 2 13 2 8v9l-48 24h-4l-14-52-1-9Z" transform="translate(410 727)" style="fill:#12eaca"/><path d="M0 0h9l12 4 11 8 9 9 9 14 6 13 4 14 1 8v14l-4 12-6 9-7 4-4 1H30l-6-2 5-5 5-8 2-9V72l-4-15-8-16-10-12-11-7-7-3h-10l-4 1 3-9 5-6Z" transform="translate(112 407)" style="fill:#fbfbfb"/><path d="m0 0 7 1 94 47 4-1 50-25 4 1 114 57 4 1 11 42 13 48 3 12 15 56 10 38 5 18 3 12 15 56 10 38 6-2 566-283 4 1-23 12-554 277-34 34-2-2 26-26 8-7-1-8-6-21-6-24-4-15-7-25-9-35-7-25-6-24-4-15-7-25-9-35-7-25-6-24-4-15-1-6-6-2-110-55h-6l-46 23-3 2-5-1L1 1v286H0Z" transform="translate(39 536)" style="fill:#242b28"/><path d="m0 0 4 1 1 7 6-3h2l3 8 4-2h3l4 16 2 7-1 5-6 2 2 10-5 3h-2l1 10-16 8-4 2h-3l-1-8-9 3-1-9-6 3h-3l-6-25v-2l6-3h2l-2-6 1-5 6-2-2-10Z" transform="translate(599 559)" style="fill:#f8f8f8"/><path d="m0 0 2 2 3 16v12l-74 37h-2l-2-14-2-9v-6l19-10Z" transform="translate(510 715)" style="fill:#67e811"/><path d="M0 0h3l4 22v7l-72 36-4 1-4-22v-7l19-10Z" transform="translate(736 602)" style="fill:#4e25e8"/><path d="M0 0h7l9 4 10 9 8 14 3 9v19l-4 8-6 4H17l-9-5-9-9-8-16-2-6V12l3-6 5-5Z" transform="translate(102 437)" style="fill:#fdfdfd"/><path d="M0 0h1l4 23v7l-74 37-2-2-2-15-1-5v-8Z" transform="translate(662 639)" style="fill:#e84e2a"/><path d="m0 0 2 4 7 29v4l5-3 4 1 1 8-6 3 1 8 2 11-15 7-3-9-1-9-23 11-6 3-3-1-3-12v-6l4-2h3l-2-10 5-3h2l-1-10 5-3h2l-2-6 1-5Z" transform="translate(731 495)" style="fill:#fafafa"/><path d="M0 0h2l6 24 2 12 6-3h2l2 6v4l-7 2 4 17v3L4 71l-3-1-3-12v-4l-16 7-14 7h-2l-3-14v-5l6-3-1-10 6-3-1-9 5-3h2l-1-11Z" transform="translate(486 614)" style="fill:#f9f9f9"/><path d="m0 0 3 1-2 2-23 11-172 86 6 2 27 5 17 3 21 4 19 3v1l-7 1-20-4-24-4-25-5-13-2h-8l-9 7-6 8-3 9-2 12 12 1 10 2v1h-10l-12-2v220h-2v290h-1V137l2-12 6-12 9-9 23-12Z" transform="translate(261 173)" style="fill:#525251"/><path d="m0 0 6 2 2 1v19l6 2 154 77 1 1v8l-6-2L1 27l-1-1Z" transform="translate(109 711)" style="fill:#f4e7d6"/><path d="m0 0 6 2 2 1 1 19 28 14 23 11 108 54 1 1v8l-6-2L1 27l-1-1Z" transform="translate(109 669)" style="fill:#f5e7d6"/><path d="m0 0 5 1 3 2v19l6 2 110 55 23 11 22 11v9l-19-9L0 26Z" transform="translate(109 754)" style="fill:#f6e9d7"/><path d="m0 0 2 1-5 5-298 149-16 8-98 49-4 5-2 8-3 1v-7l5-8 9-6Z" transform="translate(686 122)" style="fill:#0e1311"/><path d="M0 0h2l1 4-544 272-5-1-5-17-3-13h3l7 25v4l23-12 42-21 23-11L0 2Z" transform="translate(956 629)" style="fill:#0d100d"/><path d="M0 0h16l12 4 11 7 10 9 9 10 9 14 8 17 5 16 2 11v18l-2 12-5 12-9 10-5 3-6 2H39l-16-7-9-7-17-9-9-9-9-14-6-15-2-9V59l2-6 1-19 4-13 4-8 9-9Zm2 1-12 6-8 9-4 9-2 8v14l6-5 5-12 5-6 8-4h14l10 4 9 6 7 6 9 12 8 15 5 17 1 4v21l-4 13-6 8-8 4-3 1H32l-6-2H15l5 5 10 6 9 3h16l9-4 7-6 6-11 3-13V89l-3-16-5-15-11-21-8-10-9-10-12-9-11-5-9-2Zm0 19-10 5-6 8-2 7 4-1h10l14 7 7 6 8 11 7 14 4 15v14l-2 9-5 8-5 5 6 2h10l8-3 5-4 6-12 2-7V90l-3-16-5-13-9-16-11-12-10-8-10-4-4-1Zm-15 20-6 4-5 6-3 9v17l4 14 8 16 9 11 11 8 9 3 10-1 6-4 5-7 2-6V91l-4-15-8-15-11-12-10-7-6-2Z" transform="translate(110 387)" style="fill:#2a1a16"/><path d="M0 0h3l2 7 5-2h3l8 34v3L6 49l-2-9-6 3h-2l-5-18-3-13V6Z" transform="translate(594 572)" style="fill:#040404"/><path d="M0 0h2v2l-466 233v-3l33-17 138-69 23-11Z" transform="translate(904 620)" style="fill:#141310"/><path d="m0 0 7 1 94 47 4-1 50-25 4 1 114 57 4 1v6l-2-4-6-2-110-55h-6l-46 23-3 2-5-1L1 1v286H0Z" transform="translate(39 536)" style="fill:#423e39"/><path d="M0 0h2l16 34 19 45 16 42 14 40 13 40 17 59 14 56 6 24 5 24 4 17 1 9-2 3-3-15-9-40-7-31-7-27-12-45-8-26-7-22-5-17-7-21-3-8-11-31-14-35-8-20-7-15L2 7 0 3Z" transform="translate(757 94)" style="fill:#d8d8d8"/><path d="M0 0h17l179 32v1l-7 1-23-4-28-5-28-5-41-7-21-4-33-6H0l-10 3-12 5-124 62-2 1-2-2L-12 3Z" transform="translate(595 9)" style="fill:#343432"/><path d="M0 0h10l5 1-1 18H-2l-8 4-6 8-5 11-5 4V32l4-13 6-9 7-6Z" transform="translate(112 388)" style="fill:#e44d29"/><path d="M0 0h1l1 26 166 83 3 1V83h1v30l-6-2L0 28l-1-2Z" transform="translate(108 669)" style="fill:#161513"/><path d="M0 0h10l14 7 8 7 8 11 7 14 4 15v14l-2 9-5 8-4 5 8 2v1h-7l-3-1H25L9 84l-9-9-9-14-6-15-2-9V21l2-1 1 18 4 14 8 16 9 11 10 7 9 3 10-1 6-4 4-6 2-6V53l-4-15-8-15-11-12-9-6-6-2L0 1Z" transform="translate(98 425)" style="fill:#182323"/><path d="m0 0 4 1H1l1 287 36 18-1 2-6-2-30-15-1-1Z" transform="translate(38 535)" style="fill:#020202"/><path d="M0 0h1l1 26 168 84-2 2L0 28l-1-2Z" transform="translate(108 711)" style="fill:#1d1b19"/><path d="M0 0h14l10 4 9 6 8 7 9 12 8 15 5 17 1 4v21l-4 13-6 8-6 4-6 2H32l4-2 12-3 6-4 6-12 2-7V71l-3-16-5-13-9-16-11-12-11-8-12-4H2L-8 7l-6 9-2 5 6-1-3 2-6 4-4 5-3 9-2-1 2-18 2 1 1 5 4-4 5-12 6-7Z" transform="translate(110 406)" style="fill:#281814"/><path d="m0 0 8 1 142 24 8 1v2h-9l-43-7-33-6-36-6L0 3l-4-2Z" transform="translate(62 316)" style="fill:#131918"/><path d="M0 0h12l10 6 8 8 8 14 3 10v17l-4 9-6 5-3 1h-8l-10-5-8-7-7-11-5-13-1-4V15l3-8 5-5Zm2 1-5 3-5 6-1 3v19l5 13 6 10 9 9 8 4h10l6-4 4-8V37l-4-11-7-12-7-7-9-5-3-1Z" transform="translate(100 436)" style="fill:#182122"/><path d="M0 0h3L2 3l-64 32-5-1-5-17-3-13h3l7 25v4l23-12Z" transform="translate(477 870)" style="fill:#1b1c17"/><path d="m0 0 4 1-132 66-2 1-2-2Z" transform="translate(577 15)" style="fill:#272626"/><path d="m0 0 1 2h8l27 5 17 3 21 4 19 3v1l-7 1-20-4-24-4-25-5L4 4h-8l-9 7-6 8-3 9-3 5-1-4 4-11 6-8 9-8Z" transform="translate(64 273)" style="fill:#0f1717"/><path d="m0 0 5 1 110 55 4 1v6l-2-4-6-2L1 2Z" transform="translate(197 560)" style="fill:#0f0f0e"/><path d="m0 0 2 3 3 13v3l-15 7-2-10 6-3V3Z" transform="translate(720 521)" style="fill:#0a0a0a"/><path d="M0 0h2l4 16-1 3-12 6h-3l-1-9 5-3h2L-6 3Z" transform="translate(475 640)" style="fill:#090909"/><path d="M0 0h9l5 2-1 5-8 3-3 1-13-1-1-5 4-3Z" transform="translate(258 288)" style="fill:#0c0b0a"/><path d="m0 0 11 1 2 1-1 5-10 4h-12l-3-2 1-5 9-3Z" transform="translate(746 44)" style="fill:#0d0c0b"/><path d="M0 0h11l4 2-1 5-13 4-11-1-1-5 3-3Z" transform="translate(601 19)" style="fill:#0d0d0c"/><path d="m0 0 12 1 1 4-4 4-9 2h-8l-5-2 1-5 9-3Z" transform="translate(116 262)" style="fill:#0a0909"/><path d="M0 0h7l5 7v9H5l-6-7V1Z" transform="translate(338 944)" style="fill:#100f0e"/><path d="M0 0h7l6 6v9H5L0 9Z" transform="translate(369 916)" style="fill:#080807"/><path d="M0 0h7l6 7v8H5L0 9Z" transform="translate(55 803)" style="fill:#0a0a09"/><path d="M0 0h8l5 6v9H6L0 9Z" transform="translate(223 360)" style="fill:#070706"/><path d="M0 0h7l6 6v8l-1 1H5L0 9Z" transform="translate(53 331)" style="fill:#0c0b0a"/><path d="m0 0 2 1-26 26-14 7h-2l-1 2v-2l-2-1 19-10L-2 1Z" transform="translate(964 666)" style="fill:#2e2e2e"/><path d="M0 0h13v1L2 2-8 7l-6 9-2 5 6-1-3 2-6 4-4 5-3 9-2-1 2-18 2 1 1 5 4-4 5-12 6-7Z" transform="translate(110 406)" style="fill:#160f0d"/><path d="m0 0 4 1-1 2-9 3-42 21-3 1 1-3Z" transform="translate(194 558)" style="fill:#2b2825"/><path d="M0 0h1l1 13-4 9-6 5-3 1h-8l-10-5-8-7-4-6 1-2 11 12 9 5h10l6-4 3-7Z" transform="translate(139 478)" style="fill:#222d2d"/><path d="M0 0h2L1 3l-44 22v-3l33-17Z" transform="translate(483 830)" style="fill:#0f0e0b"/><path d="M0 0h10l14 7 8 7 8 11 6 11v2h-2l-8-15-11-12-9-6-6-2L0 1Z" transform="translate(98 425)" style="fill:#1b2626"/><path d="M0 0h2l16 34 4 11-2 2L9 22 0 3Z" transform="translate(757 94)" style="fill:#d3d3d3"/><path d="m0 0 1 3 3 1-10 9-27 27-2-2 26-26 8-7Z" transform="translate(399 936)" style="fill:#141313"/><path d="m0 0 2 3 8 30-1 6-2-4-6-24-2-8Z" transform="translate(330 674)" style="fill:#2a302c"/><path d="m0 0 2 1-5 5-8 9-3 6-2 8-3 2 1-8 6-12 9-9Z" transform="translate(57 275)" style="fill:#252c2c"/><path d="m0 0 7 1 26 13-1 2-6-2L0 1Z" transform="translate(43 827)" style="fill:#333230"/><path d="m0 0 21 3 14 2v2h-9L3 3 0 2Z" transform="translate(185 337)" style="fill:#101918"/><path d="m0 0 2 3 7 23-1 5-2-4-7-23Z" transform="translate(833 286)" style="fill:#c4c4c4"/><path d="m0 0 2 3 6 21 1 6-2 1-5-17-2-8Z" transform="translate(306 586)" style="fill:#262c28"/><path d="m0 0 2 4 5 19-1 6-2-4-4-15Z" transform="translate(873 234)" style="fill:#313735"/><path d="m0 0 2 4 5 19-1 6-2-4-4-15Z" transform="translate(850 148)" style="fill:#323836"/><path d="m0 0 9 3 10 6 9 8-2 2-7-7L8 5-2 2Z" transform="translate(123 406)" style="fill:#2f201c"/><path d="m0 0 2 4 5 19-1 6-2-4-4-15Z" transform="translate(896 320)" style="fill:#313634"/><path d="m0 0 2 1-7 8-5 12-1 12h-1V17l5-10Z" transform="translate(254 313)" style="fill:#060f0e"/><path d="m0 0 2 1 5 20v6l-2-3L0 5Z" transform="translate(385 883)" style="fill:#1e2320"/><path d="m0 0 2 3 5 17v7l-2-3L0 6Z" transform="translate(372 834)" style="fill:#242a27"/><path d="m0 0 2 1 5 20v6l-2-3L0 5Z" transform="translate(352 759)" style="fill:#1e2320"/><path d="m0 0 2 3 5 17v7l-2-3L0 6Z" transform="translate(339 710)" style="fill:#242a27"/><path d="m0 0 2 4 4 15-1 6H4L-1 6Z" transform="translate(931 451)" style="fill:#363e3b"/><path d="m0 0 2 1 5 20v6l-2-3L0 5Z" transform="translate(257 402)" style="fill:#1e2320"/><path d="m0 0 2 1 5 20v6l-2-3L0 5Z" transform="translate(323 650)" style="fill:#1d211e"/><path d="m0 0 2 1 5 20v6l-2-3L0 5Z" transform="translate(290 526)" style="fill:#1d211e"/><path d="M0 0h2L0 5l-3 7-3 16-2-1 1-11 5-13Z" transform="translate(92 400)" style="fill:#322520"/><path d="m0 0 2 1 4 15v8l-2-3L0 7Z" transform="translate(844 129)" style="fill:#2b322f"/><path d="m0 0 2 4 4 15-1 6H4L0 10Z" transform="translate(839 107)" style="fill:#373d3b"/><path d="m0 0 2 1 4 15v8l-2-3L0 7Z" transform="translate(890 301)" style="fill:#292e2d"/><path d="m0 0 2 1 4 15v8l-2-3L0 7Z" transform="translate(867 215)" style="fill:#292e2d"/><path d="m0 0 2 3 4 15-1 6-2-4-4-17Z" transform="translate(367 813)" style="fill:#2d332f"/><path d="m0 0 2 1 4 15v8l-2-4L0 5Z" transform="translate(967 589)" style="fill:#2a2e2d"/><path d="m0 0 2 1 6 19v5l-2-2L0 4Z" transform="translate(825 263)" style="fill:#d9d9d9"/><path d="m0 0 2 1 4 15v8l-2-4L0 5Z" transform="translate(833 88)" style="fill:#2a2e2d"/><path d="m0 0 2 1 4 15v7l-2-3L0 5Z" transform="translate(925 432)" style="fill:#292d2c"/><path d="m0 0 2 1 1 5 2-3h2L5 7l-4 8-2 4-1-4 1-2Z" transform="translate(84 427)" style="fill:#1c1814"/><path d="m0 0 2 1 4 15v7l-2-3L0 5Z" transform="translate(902 346)" style="fill:#2a2e2c"/><path d="m0 0 2 3 4 15-1 6-2-4-4-17Z" transform="translate(264 426)" style="fill:#2c312d"/><path d="m0 0 8 1 9 2v2L6 4-4 2Z" transform="translate(62 316)" style="fill:#2a2d2a"/><path d="m0 0 10 1 11 2v1l-8 1-14-3Z" transform="translate(731 31)" style="fill:#403e3c"/><path d="m0 0 5 1 11 7 5 5h-3L9 6 0 2Z" transform="translate(133 390)" style="fill:#301f1a"/><path d="m0 0 15 2 3 1v2L7 4 0 2Z" transform="translate(167 334)" style="fill:#252826"/><path d="M0 0h9l12 2-3 2L7 3 0 1Z" transform="translate(114 326)" style="fill:#262b29"/><path d="m0 0 4 1-13 7h-2l-1 2V8l-2-1Z" transform="translate(935 692)" style="fill:#303030"/><path d="M0 0h2v2l10 2v1H5L2 4h-13l-1-2Z" transform="translate(134 513)" style="fill:#130d0b"/><path d="m0 0 11 1 5 2-4 2-13-2-1-2Z" transform="translate(797 42)" style="fill:#3c4240"/><path d="m0 0 2 3 2 8v8l-2-3-3-14Z" transform="translate(915 392)" style="fill:#2b302e"/><path d="m0 0 2 4 3 10-1 6-2-4-3-14Z" transform="translate(848 336)" style="fill:#cbcbcb"/><path d="m0 0 2 1-12 12-2-2L-2 1Z" transform="translate(964 666)" style="fill:#202020"/><path d="M0 0h2L0 4l-8 8-2-2 5-6Z" transform="translate(975 655)" style="fill:#3f3f3f"/><path d="m0 0 2 3 2 12-2 3-3-15Z" transform="translate(871 427)" style="fill:#c8c8c8"/><path d="M0 0h2L0 4l-8 8-2-2Z" transform="translate(374 964)" style="fill:#2d2d2c"/><path d="m0 0 6 1 6 5-1 4-5-5-6-4Z" transform="translate(810 46)" style="fill:#262b29"/><path d="m0 0 8 1 8 1v1L9 4-2 2Z" transform="translate(141 288)" style="fill:#272d2b"/><path d="m0 0 5 1 9 5v2L8 6 0 1Z" transform="translate(175 493)" style="fill:#fbe6e2"/><path d="m0 0 2 3 3 10-2 3-4-12Z" transform="translate(813 226)" style="fill:#cbcbcb"/><path d="M0 0h3L2 3l-4 2-5-1V1h2v2Z" transform="translate(417 900)" style="fill:#0e0f0c"/><path d="m0 0 2 4 1 9-2 3-2-14Z" transform="translate(188 460)" style="fill:#482c23"/><path d="m0 0 10 1 1 3L1 3l-4-2Z" transform="translate(220 343)" style="fill:#2c312e"/><path d="M0 0h8l2 3-9 2V3l2-1Z" transform="translate(786 42)" style="fill:#0b0c0b"/><path d="m0 0 3 3 2 5v5L2 9Z" transform="translate(786 158)" style="fill:#e1e1e1"/><path d="M0 0h11v3L1 2Z" transform="translate(719 30)" style="fill:#373533"/><path d="m0 0 2 4 1 7-2 3-1-4Z" transform="translate(965 578)" style="fill:#3f4543"/><path d="m0 0 2 4 1 7-2 3-1-4Z" transform="translate(942 492)" style="fill:#3e4442"/><path d="m0 0 2 3 1 2v9l-2-4-1-3Z" transform="translate(868 416)" style="fill:#ddd"/><path d="m0 0 2 4 1 7-2 3-1-4Z" transform="translate(919 406)" style="fill:#3f4543"/><path d="m0 0 2 4 1 7-2 3-1-4Z" transform="translate(896 320)" style="fill:#3f4543"/><path d="m0 0 2 1 2 9-2 3-2-8Z" transform="translate(838 304)" style="fill:#cecece"/><path d="m0 0 2 4 1 7-2 3-1-4Z" transform="translate(873 234)" style="fill:#3f4543"/><path d="m0 0 2 4 1 7-2 3-1-4Z" transform="translate(854 163)" style="fill:#3f4543"/><path d="m0 0 2 3 3 8-2 2-3-7Z" transform="translate(774 128)" style="fill:#cfcfcf"/><path d="m0 0 2 4 1 7-2 3-1-4Z" transform="translate(831 77)" style="fill:#3f4543"/><path d="M0 0h10l2 2-3 1-8-1Z" transform="translate(691 25)" style="fill:#302e2c"/><path d="m0 0 2 3 1 6-3 1-1-8Z" transform="translate(409 892)" style="fill:#202019"/><path d="m0 0 2 4 1 6-2 3-2-11Z" transform="translate(860 381)" style="fill:#ccc"/><path d="m0 0 2 2-1 7-3 2 1-8Z" transform="translate(40 295)" style="fill:#384647"/><path d="m0 0 2 2 1 10-2-2-1-3Z" transform="translate(862 391)" style="fill:#dfdfdf"/><path d="m0 0 8 1-3 2-9-1Z" transform="translate(62 316)" style="fill:#243533"/><path d="m0 0 6 2 4 3-2 1-8-4Z" transform="translate(107 666)" style="fill:#181715"/><path d="M0 0h2l1 7-2 3-2-9Z" transform="translate(953 537)" style="fill:#38403d"/><path d="M0 0h2l1 7-2 3-2-9Z" transform="translate(888 294)" style="fill:#38403d"/><path d="M0 0h2l1 7-2 3-2-9Z" transform="translate(865 208)" style="fill:#38403d"/><path d="m0 0 10 1v1L2 3l-5-1Z" transform="translate(686 23)" style="fill:#494847"/><path d="m0 0 10 1v1L2 3l-5-1Z" transform="translate(658 18)" style="fill:#494847"/><path d="m0 0 10 1v1L2 3l-5-1Z" transform="translate(630 13)" style="fill:#494847"/><path d="m0 0 2 1-3 3-4 1-2-2Z" transform="translate(586 11)" style="fill:#494846"/><path d="M0 0h2l1 8H1L0 6Z" transform="translate(406 886)" style="fill:#0d110f"/><path d="m0 0 2 3 1 2v7L1 9Z" transform="translate(372 834)" style="fill:#151715"/><path d="m0 0 2 3 1 2v7L1 9Z" transform="translate(339 710)" style="fill:#151715"/><path d="m0 0 2 3 1 2v7L1 9Z" transform="translate(306 586)" style="fill:#151715"/><path d="m0 0 2 3 1 2v7L1 9Z" transform="translate(273 462)" style="fill:#151715"/><path d="m0 0 2 3 2 7-2 1-2-5Z" transform="translate(795 178)" style="fill:#d3d3d3"/><path d="m0 0 3 1-5 5-3-1Z" transform="translate(390 948)" style="fill:#2a2826"/><path d="m0 0 2 1 1 7-2 1-1-2Z" transform="translate(951 529)" style="fill:#292f2d"/><path d="m0 0 2 1 1 7-2 1-1-2Z" transform="translate(886 286)" style="fill:#292e2d"/><path d="m0 0 2 1 1 7-2 1-1-2Z" transform="translate(863 200)" style="fill:#292e2d"/><path d="m0 0 2 3 2 6-2 1-2-4Z" transform="translate(783 149)" style="fill:#d1d1d1"/><path d="m0 0 5 3 2 3H4L0 2Z" transform="translate(123 434)" style="fill:#263435"/><path d="m0 0 10 1v1L2 3 0 2Z" transform="translate(770 38)" style="fill:#494847"/><path d="m0 0 10 1v1L2 3 0 2Z" transform="translate(742 33)" style="fill:#4b4a49"/><path d="m0 0 10 1v1L2 3 0 2Z" transform="translate(714 28)" style="fill:#4c4b4a"/><path d="m0 0 10 1v1L2 3 0 2Z" transform="translate(613 10)" style="fill:#494847"/></svg>